<?xml version="1.0" encoding="utf-8"?>
<!-- Generator: Adobe Illustrator 19.2.1, SVG Export Plug-In . SVG Version: 6.00 Build 0)  -->
<!DOCTYPE svg PUBLIC "-//W3C//DTD SVG 1.1//EN" "http://www.w3.org/Graphics/SVG/1.1/DTD/svg11.dtd">
<svg version="1.1" id="Layer_1" xmlns="http://www.w3.org/2000/svg" xmlns:xlink="http://www.w3.org/1999/xlink" x="0px" y="0px"
	 viewBox="0 0 155.8 19.2" enable-background="new 0 0 155.8 19.2" xml:space="preserve">
<g>
	<path fill="#323031" d="M17.1,17c-1.1,0.6-2.2,1-3.4,1.2s-2.4,0.4-3.6,0.4c-1.3,0-2.5-0.2-3.6-0.6c-1.1-0.4-2.1-1-2.9-1.8
		c-0.8-0.8-1.4-1.7-1.9-2.8C1.2,12.4,1,11.2,1,9.8s0.2-2.6,0.7-3.7c0.5-1.1,1.1-2,1.9-2.8C4.4,2.6,5.3,2,6.4,1.6S8.8,1,10.1,1
		c1.3,0,2.6,0.2,3.7,0.5s2.1,0.9,3,1.7L14.1,6c-0.5-0.5-1.1-0.9-1.7-1.2c-0.6-0.3-1.4-0.4-2.4-0.4c-0.8,0-1.5,0.1-2.1,0.4
		C7.3,5.1,6.7,5.5,6.3,5.9C5.8,6.4,5.5,7,5.2,7.7C5,8.3,4.8,9.1,4.8,9.8c0,0.8,0.1,1.5,0.4,2.2c0.2,0.7,0.6,1.2,1.1,1.7
		c0.5,0.5,1,0.9,1.6,1.1c0.6,0.3,1.4,0.4,2.1,0.4c0.8,0,1.5-0.1,2.1-0.3c0.6-0.2,1.1-0.4,1.4-0.6v-2.7h-3V8.3h6.6V17z"/>
	<path fill="#323031" d="M20.4,1.4h6.5c0.9,0,1.7,0.1,2.4,0.2c0.8,0.2,1.4,0.4,2,0.8c0.6,0.4,1,0.9,1.4,1.6s0.5,1.5,0.5,2.5
		c0,1.2-0.3,2.2-0.9,3c-0.6,0.8-1.5,1.4-2.7,1.6l4.3,7.1h-4.4l-3.5-6.7h-1.8v6.7h-3.7V1.4z M24.1,8.4h2.2c0.3,0,0.7,0,1.1,0
		c0.4,0,0.7-0.1,1-0.2c0.3-0.1,0.5-0.3,0.7-0.6c0.2-0.3,0.3-0.6,0.3-1.1c0-0.4-0.1-0.8-0.3-1c-0.2-0.3-0.4-0.4-0.7-0.6
		c-0.3-0.1-0.6-0.2-0.9-0.3c-0.3,0-0.7-0.1-1-0.1h-2.4V8.4z"/>
	<path fill="#323031" d="M36.2,1.4h11.4v3.4h-7.7V8h7.3v3.4h-7.3v3.4h8.1v3.4H36.2V1.4z"/>
	<path fill="#323031" d="M66.3,17c-1.1,0.6-2.2,1-3.4,1.2s-2.4,0.4-3.6,0.4c-1.3,0-2.5-0.2-3.6-0.6c-1.1-0.4-2.1-1-2.9-1.8
		c-0.8-0.8-1.4-1.7-1.9-2.8c-0.5-1.1-0.7-2.3-0.7-3.7s0.2-2.6,0.7-3.7c0.5-1.1,1.1-2,1.9-2.8c0.8-0.8,1.8-1.4,2.9-1.8S57.9,1,59.2,1
		c1.3,0,2.6,0.2,3.7,0.5c1.1,0.3,2.1,0.9,3,1.7L63.3,6c-0.5-0.5-1.1-0.9-1.7-1.2c-0.6-0.3-1.4-0.4-2.4-0.4c-0.8,0-1.5,0.1-2.1,0.4
		c-0.6,0.3-1.2,0.6-1.6,1.1c-0.5,0.5-0.8,1.1-1.1,1.7C54.1,8.3,54,9.1,54,9.8c0,0.8,0.1,1.5,0.4,2.2c0.2,0.7,0.6,1.2,1.1,1.7
		c0.5,0.5,1,0.9,1.6,1.1c0.6,0.3,1.4,0.4,2.1,0.4c0.8,0,1.5-0.1,2.1-0.3c0.6-0.2,1.1-0.4,1.4-0.6v-2.7h-3V8.3h6.6V17z"/>
	<path fill="#323031" d="M75.1,1.4h4l2.7,10.8h0l3.5-10.8h3.4l3.5,11.1h0l2.8-11.1h3.7L94,18.2h-3.3L87,6.6h0l-3.7,11.6h-3.2
		L75.1,1.4z"/>
	<path fill="#323031" d="M99.7,9.8c0-1.3,0.2-2.6,0.7-3.7c0.5-1.1,1.1-2,1.9-2.8c0.8-0.8,1.8-1.4,2.9-1.8s2.3-0.6,3.6-0.6
		c1.3,0,2.5,0.2,3.6,0.6s2.1,1,2.9,1.8c0.8,0.8,1.4,1.7,1.9,2.8s0.7,2.3,0.7,3.7s-0.2,2.6-0.7,3.7c-0.5,1.1-1.1,2-1.9,2.8
		c-0.8,0.8-1.8,1.4-2.9,1.8c-1.1,0.4-2.3,0.6-3.6,0.6c-1.3,0-2.5-0.2-3.6-0.6c-1.1-0.4-2.1-1-2.9-1.8c-0.8-0.8-1.4-1.7-1.9-2.8
		C99.9,12.4,99.7,11.2,99.7,9.8z M103.5,9.8c0,0.8,0.1,1.5,0.4,2.2s0.6,1.2,1.1,1.7c0.5,0.5,1,0.9,1.6,1.1c0.6,0.3,1.4,0.4,2.1,0.4
		s1.5-0.1,2.1-0.4c0.6-0.3,1.2-0.6,1.6-1.1c0.5-0.5,0.8-1.1,1.1-1.7c0.2-0.7,0.4-1.4,0.4-2.2c0-0.8-0.1-1.5-0.4-2.2
		c-0.2-0.7-0.6-1.2-1.1-1.7s-1-0.9-1.6-1.1c-0.6-0.3-1.4-0.4-2.1-0.4s-1.5,0.1-2.1,0.4c-0.6,0.3-1.2,0.6-1.6,1.1s-0.8,1.1-1.1,1.7
		C103.6,8.3,103.5,9.1,103.5,9.8z"/>
	<path fill="#323031" d="M120.2,1.4h5l7.1,11.7h0V1.4h3.7v16.8h-4.8l-7.3-12h0v12h-3.7V1.4z"/>
	<path fill="#323031" d="M154.8,17c-1.1,0.6-2.2,1-3.4,1.2s-2.4,0.4-3.6,0.4c-1.3,0-2.5-0.2-3.6-0.6c-1.1-0.4-2.1-1-2.9-1.8
		c-0.8-0.8-1.4-1.7-1.9-2.8c-0.5-1.1-0.7-2.3-0.7-3.7s0.2-2.6,0.7-3.7c0.5-1.1,1.1-2,1.9-2.8c0.8-0.8,1.8-1.4,2.9-1.8
		s2.3-0.6,3.6-0.6c1.3,0,2.6,0.2,3.7,0.5s2.1,0.9,3,1.7L151.8,6c-0.5-0.5-1.1-0.9-1.7-1.2c-0.6-0.3-1.4-0.4-2.4-0.4
		c-0.8,0-1.5,0.1-2.1,0.4c-0.6,0.3-1.2,0.6-1.6,1.1s-0.8,1.1-1.1,1.7c-0.2,0.7-0.4,1.4-0.4,2.2c0,0.8,0.1,1.5,0.4,2.2
		s0.6,1.2,1.1,1.7c0.5,0.5,1,0.9,1.6,1.1c0.6,0.3,1.4,0.4,2.1,0.4c0.8,0,1.5-0.1,2.1-0.3c0.6-0.2,1.1-0.4,1.4-0.6v-2.7h-3V8.3h6.6
		V17z"/>
</g>
</svg>
