<?xml version="1.0" encoding="utf-8"?>
<!-- Generator: Adobe Illustrator 19.2.1, SVG Export Plug-In . SVG Version: 6.00 Build 0)  -->
<!DOCTYPE svg PUBLIC "-//W3C//DTD SVG 1.1//EN" "http://www.w3.org/Graphics/SVG/1.1/DTD/svg11.dtd">
<svg version="1.1" id="Layer_1" xmlns="http://www.w3.org/2000/svg" xmlns:xlink="http://www.w3.org/1999/xlink" x="0px" y="0px"
	 viewBox="0 0 190.7 29.8" enable-background="new 0 0 190.7 29.8" xml:space="preserve">
<g>
	<path fill="#323031" d="M53.1,23c-1.1,0.6-2.2,1-3.4,1.2s-2.4,0.4-3.6,0.4c-1.3,0-2.5-0.2-3.6-0.6c-1.1-0.4-2.1-1-2.9-1.8
		c-0.8-0.8-1.4-1.7-1.9-2.8c-0.5-1.1-0.7-2.3-0.7-3.7s0.2-2.6,0.7-3.7c0.5-1.1,1.1-2,1.9-2.8c0.8-0.8,1.8-1.4,2.9-1.8S44.8,7,46.1,7
		c1.3,0,2.6,0.2,3.7,0.5s2.1,0.9,3,1.7L50.1,12c-0.5-0.5-1.1-0.9-1.7-1.2c-0.6-0.3-1.4-0.4-2.4-0.4c-0.8,0-1.5,0.1-2.1,0.4
		c-0.6,0.3-1.2,0.6-1.6,1.1c-0.5,0.5-0.8,1.1-1.1,1.7c-0.2,0.7-0.4,1.4-0.4,2.2c0,0.8,0.1,1.5,0.4,2.2c0.2,0.7,0.6,1.2,1.1,1.7
		c0.5,0.5,1,0.9,1.6,1.1c0.6,0.3,1.4,0.4,2.1,0.4c0.8,0,1.5-0.1,2.1-0.3c0.6-0.2,1.1-0.4,1.4-0.6v-2.7h-3v-3.4h6.6V23z"/>
	<path fill="#323031" d="M56.4,7.4h6.5c0.9,0,1.7,0.1,2.4,0.2c0.8,0.2,1.4,0.4,2,0.8c0.6,0.4,1,0.9,1.4,1.6s0.5,1.5,0.5,2.5
		c0,1.2-0.3,2.2-0.9,3c-0.6,0.8-1.5,1.4-2.7,1.6l4.3,7.1h-4.4l-3.5-6.7h-1.8v6.7h-3.7V7.4z M60.1,14.4h2.2c0.3,0,0.7,0,1.1,0
		c0.4,0,0.7-0.1,1-0.2c0.3-0.1,0.5-0.3,0.7-0.6c0.2-0.3,0.3-0.6,0.3-1.1c0-0.4-0.1-0.8-0.3-1c-0.2-0.3-0.4-0.4-0.7-0.6
		c-0.3-0.1-0.6-0.2-0.9-0.3c-0.3,0-0.7-0.1-1-0.1h-2.4V14.4z"/>
	<path fill="#323031" d="M72.2,7.4h11.4v3.4h-7.7V14h7.3v3.4h-7.3v3.4h8.1v3.4H72.2V7.4z"/>
	<path fill="#323031" d="M102.3,23c-1.1,0.6-2.2,1-3.4,1.2s-2.4,0.4-3.6,0.4c-1.3,0-2.5-0.2-3.6-0.6c-1.1-0.4-2.1-1-2.9-1.8
		c-0.8-0.8-1.4-1.7-1.9-2.8c-0.5-1.1-0.7-2.3-0.7-3.7s0.2-2.6,0.7-3.7c0.5-1.1,1.1-2,1.9-2.8c0.8-0.8,1.8-1.4,2.9-1.8S93.9,7,95.2,7
		c1.3,0,2.6,0.2,3.7,0.5c1.1,0.3,2.1,0.9,3,1.7L99.3,12c-0.5-0.5-1.1-0.9-1.7-1.2c-0.6-0.3-1.4-0.4-2.4-0.4c-0.8,0-1.5,0.1-2.1,0.4
		c-0.6,0.3-1.2,0.6-1.6,1.1c-0.5,0.5-0.8,1.1-1.1,1.7c-0.2,0.7-0.4,1.4-0.4,2.2c0,0.8,0.1,1.5,0.4,2.2c0.2,0.7,0.6,1.2,1.1,1.7
		c0.5,0.5,1,0.9,1.6,1.1c0.6,0.3,1.4,0.4,2.1,0.4c0.8,0,1.5-0.1,2.1-0.3c0.6-0.2,1.1-0.4,1.4-0.6v-2.7h-3v-3.4h6.6V23z"/>
	<path fill="#323031" d="M110.1,7.4h4l2.7,10.8h0l3.5-10.8h3.4l3.5,11.1h0l2.8-11.1h3.7L129,24.2h-3.3L122,12.6h0l-3.7,11.6h-3.2
		L110.1,7.4z"/>
	<path fill="#323031" d="M134.7,15.8c0-1.3,0.2-2.6,0.7-3.7c0.5-1.1,1.1-2,1.9-2.8c0.8-0.8,1.8-1.4,2.9-1.8s2.3-0.6,3.6-0.6
		c1.3,0,2.5,0.2,3.6,0.6s2.1,1,2.9,1.8c0.8,0.8,1.4,1.7,1.9,2.8s0.7,2.3,0.7,3.7s-0.2,2.6-0.7,3.7c-0.5,1.1-1.1,2-1.9,2.8
		c-0.8,0.8-1.8,1.4-2.9,1.8c-1.1,0.4-2.3,0.6-3.6,0.6c-1.3,0-2.5-0.2-3.6-0.6c-1.1-0.4-2.1-1-2.9-1.8c-0.8-0.8-1.4-1.7-1.9-2.8
		C134.9,18.4,134.7,17.2,134.7,15.8z M138.5,15.8c0,0.8,0.1,1.5,0.4,2.2s0.6,1.2,1.1,1.7c0.5,0.5,1,0.9,1.6,1.1
		c0.6,0.3,1.4,0.4,2.1,0.4s1.5-0.1,2.1-0.4c0.6-0.3,1.2-0.6,1.6-1.1c0.5-0.5,0.8-1.1,1.1-1.7c0.2-0.7,0.4-1.4,0.4-2.2
		c0-0.8-0.1-1.5-0.4-2.2c-0.2-0.7-0.6-1.2-1.1-1.7s-1-0.9-1.6-1.1c-0.6-0.3-1.4-0.4-2.1-0.4s-1.5,0.1-2.1,0.4
		c-0.6,0.3-1.2,0.6-1.6,1.1s-0.8,1.1-1.1,1.7C138.6,14.3,138.5,15.1,138.5,15.8z"/>
	<path fill="#323031" d="M155.2,7.4h5l7.1,11.7h0V7.4h3.7v16.8h-4.8l-7.3-12h0v12h-3.7V7.4z"/>
	<path fill="#323031" d="M189.8,23c-1.1,0.6-2.2,1-3.4,1.2s-2.4,0.4-3.6,0.4c-1.3,0-2.5-0.2-3.6-0.6c-1.1-0.4-2.1-1-2.9-1.8
		c-0.8-0.8-1.4-1.7-1.9-2.8c-0.5-1.1-0.7-2.3-0.7-3.7s0.2-2.6,0.7-3.7c0.5-1.1,1.1-2,1.9-2.8c0.8-0.8,1.8-1.4,2.9-1.8
		s2.3-0.6,3.6-0.6c1.3,0,2.6,0.2,3.7,0.5s2.1,0.9,3,1.7l-2.6,2.8c-0.5-0.5-1.1-0.9-1.7-1.2c-0.6-0.3-1.4-0.4-2.4-0.4
		c-0.8,0-1.5,0.1-2.1,0.4c-0.6,0.3-1.2,0.6-1.6,1.1s-0.8,1.1-1.1,1.7c-0.2,0.7-0.4,1.4-0.4,2.2c0,0.8,0.1,1.5,0.4,2.2
		s0.6,1.2,1.1,1.7c0.5,0.5,1,0.9,1.6,1.1c0.6,0.3,1.4,0.4,2.1,0.4c0.8,0,1.5-0.1,2.1-0.3c0.6-0.2,1.1-0.4,1.4-0.6v-2.7h-3v-3.4h6.6
		V23z"/>
</g>
<g>
	<path fill="#F8D301" d="M15.9,25.2C8.1,24.9,2.1,18.4,2.4,10.7c0.2-3.7,1.8-7,4.3-9.4L6.1,0.7C3.3,3.4,1.5,7.2,1.4,11.5
		C1,20.4,7.7,27.8,16.3,28.2c5,0.2,9.6-2.1,12.6-5.8l-2-1.9C24.2,23.6,20.3,25.4,15.9,25.2z"/>
</g>
<g>
	<path fill="#F8D301" d="M15.8,11.2L4.4,14.3c0.9,3.8,3.5,7,7.1,8.4L15.8,11.2z"/>
	<path fill="#F8D301" d="M15.9,10L8.2,2.7c-2.4,2.1-3.9,5.1-4,8.5c0,0.7,0,1.4,0.1,2L15.9,10z"/>
	<path fill="#F8D301" d="M17,11.1l-4.4,12c0.9,0.3,1.9,0.5,3,0.5c4,0.2,7.6-1.6,9.9-4.5L17,11.1z"/>
</g>
<path fill="#F8D301" d="M25.5,4c-0.2-0.4-0.6-0.6-0.9-0.8c-1.1-0.5-2.4,0-2.8,1.1l-0.5,1.3l-0.2,0.5l-0.5,1.3l1.4,0l0.3,0l1.7,0
	c1.1,0,2.1-0.9,2-2C25.9,4.9,25.8,4.4,25.5,4z"/>
<path fill="#F8D301" d="M19.2,5.3C19,5.1,18.7,5,18.4,5c-0.8-0.1-1.6,0.6-1.6,1.5l0,1l0,0.4l0,1l0.9-0.4l0.2-0.1L18.9,8
	c0.8-0.3,1.2-1.2,0.9-1.9C19.7,5.8,19.5,5.5,19.2,5.3z"/>
<path fill="#F8D301" d="M21.3,9.6c0-0.2-0.1-0.4-0.3-0.5c-0.4-0.4-1.3-0.4-1.8,0l-0.6,0.5l-0.2,0.2l-0.6,0.5l0.8,0.3l0.1,0l0.9,0.3
	c0.6,0.2,1.4,0,1.6-0.5C21.3,10.1,21.3,9.8,21.3,9.6z"/>
<path fill="#F8D301" d="M24.8,9.6c0.1-0.2,0.1-0.5,0.1-0.7c-0.1-0.7-0.8-1.1-1.5-1l-0.8,0.2l-0.3,0.1l-0.8,0.2L21.9,9L22,9.1
	l0.6,0.8c0.4,0.5,1.2,0.7,1.7,0.3C24.5,10.1,24.7,9.9,24.8,9.6z"/>
</svg>
